<?xml version="1.0" encoding="UTF-8"?>
<svg width="43px" height="43px" viewBox="0 0 43 43" version="1.1" xmlns="http://www.w3.org/2000/svg" xmlns:xlink="http://www.w3.org/1999/xlink">
    <!-- Generator: sketchtool 51.3 (57544) - http://www.bohemiancoding.com/sketch -->
    <title>7E39451C-22A2-4A58-9683-A9C6F6C48BB0</title>
    <desc>Created with sketchtool.</desc>
    <defs></defs>
    <g id="Parcours-Formulaire-Desktop" stroke="none" stroke-width="1" fill="none" fill-rule="evenodd">
        <g id="Part1/FormVotreStatut-filled" transform="translate(-458.000000, -529.000000)" fill="#E74C3C">
            <g id="FORM" transform="translate(426.000000, 338.000000)">
                <g id="Group" transform="translate(0.000000, 98.000000)">
                    <g id="Oui/Non">
                        <g id="Group-2" transform="translate(1.000000, 70.000000)">
                            <g id="Picto/Message/Large/Alerte" transform="translate(32.000000, 24.000000)">
                                <path d="M20.05275,1.10545 C9.60525,1.10545 1.10525,9.60545 1.10525,20.05295 C1.10525,30.50045 9.60525,38.99995 20.05275,38.99995 C30.50025,38.99995 39.00025,30.50045 39.00025,20.05295 C39.00025,9.60545 30.50025,1.10545 20.05275,1.10545 M20.05275,41.10545 C8.44425,41.10545 -0.99975,31.66095 -0.99975,20.05295 C-0.99975,8.44445 8.44425,-1.00005 20.05275,-1.00005 C31.66125,-1.00005 41.10525,8.44445 41.10525,20.05295 C41.10525,31.66095 31.66125,41.10545 20.05275,41.10545" id="Fill-1"></path>
                                <path d="M17.80275,13.30245 L17.80275,20.80295 C17.80275,22.04545 18.81025,23.05295 20.05275,23.05295 C21.29525,23.05295 22.30275,22.04545 22.30275,20.80295 L22.30275,13.30245 C22.30275,12.06045 21.29525,11.05245 20.05275,11.05245 C18.81025,11.05245 17.80275,12.06045 17.80275,13.30245 Z" id="Clip-4"></path>
                                <path d="M17.80275,27.30245 C17.80275,28.54545 18.81025,29.55245 20.05275,29.55245 C21.29525,29.55245 22.30275,28.54545 22.30275,27.30245 C22.30275,26.05995 21.29525,25.05245 20.05275,25.05245 C18.81025,25.05245 17.80275,26.05995 17.80275,27.30245 Z" id="Clip-7"></path>
                            </g>
                        </g>
                    </g>
                </g>
            </g>
        </g>
    </g>
</svg>