<svg xmlns="http://www.w3.org/2000/svg" width="42" height="45" viewBox="0 0 42 45">
    <g fill="none" fill-rule="evenodd" stroke="#333" stroke-linecap="round" stroke-linejoin="round" stroke-width="2">
        <path d="M15.676 29s-3.957.897-4.676 8l10-5.762s-2.95.107-5.324-2.238zM26.324 29s3.956.897 4.676 8l-10-5.762s2.95.107 5.324-2.238zM17 34s3.774 4.332 8 .245M14 43s.655-4.71 5-7M28 43s-.655-4.71-5-7"/>
        <path d="M29.595 31.204c2.257.7 9.366 3.086 10.136 5.663 0 0 1.198 2.733 1.269 7.133H1c.07-4.4 1.268-7.133 1.268-7.133C3.185 33.8 13.088 31 13.088 31M23.89 25h-2.78c-.61 0-1.11-.45-1.11-1s.5-1 1.11-1h2.78c.61 0 1.11.45 1.11 1s-.5 1-1.11 1zM28.355 15c-.102-.826.466-1.468.227-2.215 1.104-2.125.44-7.618-7.185-7.75-6.607-.525-9.28 5.02-8.143 7.26-.273.784.391 1.827.274 2.705M14 21c1.036 3.068 3.287 5.422 6 6M12.276 21.448l.022-.002a1.686 1.686 0 0 0 1.475-1.856l-.436-4.087a1.674 1.674 0 0 0-1.832-1.494l-.022.002a1.684 1.684 0 0 0-1.474 1.857l.436 4.086c.102.924.92 1.59 1.832 1.494zm17.446.543l-.02-.002a1.686 1.686 0 0 1-1.475-1.858l.436-4.085a1.674 1.674 0 0 1 1.832-1.495l.02.003c.913.103 1.571.931 1.476 1.857l-.436 4.086a1.674 1.674 0 0 1-1.833 1.494z"/>
        <path d="M10.138 14.163c-.16-.791-.137-.667-.137-1.509 0-6.436 4.924-11.654 11-11.654C27.076 1 32 6.217 32 12.653c0 .804-.077 1.588-.224 2.347M30 22c-.506.66-1.906 1.98-5 2M16 25l-1 4M25 27l.339 2"/>
        <path d="M14 15.869s4.65.905 7.249-2.037c.833-.943 1.864-1.67 3.04-1.804 1.127-.128 2.491.147 3.711 1.578"/>
    </g>
</svg>
